<?xml version="1.0" encoding="utf-8"?>
<!-- Generator: Adobe Illustrator 16.0.0, SVG Export Plug-In . SVG Version: 6.00 Build 0)  -->
<!DOCTYPE svg PUBLIC "-//W3C//DTD SVG 1.1//EN" "http://www.w3.org/Graphics/SVG/1.1/DTD/svg11.dtd">
<svg version="1.1" id="Layer_1" xmlns="http://www.w3.org/2000/svg" xmlns:xlink="http://www.w3.org/1999/xlink" x="0px" y="0px"
	 width="246px" height="200px" viewBox="0 0 246 200" enable-background="new 0 0 246 200" xml:space="preserve">
<g>
	<path fill-rule="evenodd" clip-rule="evenodd" fill="#2376B8" d="M60.07,193.794c37.137-6.535,74.271-13.069,111.688-19.653
		c-1.833-3.039-4.229-5.41-6.358-7.961c-16.883-20.212-33.787-40.405-50.794-60.511c-1.456-1.722-1.563-3.056-0.854-4.99
		c7.371-20.112,14.682-40.247,22.007-60.375c2.431-6.68,4.86-13.36,7.276-20.045c0.152-0.423,0.228-0.862,0.875-1.103
		c5.396,9.345,10.814,18.717,16.225,28.092c27.68,47.954,55.357,95.91,83.035,143.865c0.355,0.616,0.678,1.253,1.063,1.85
		c0.585,0.909,0.287,1.293-0.715,1.308c-0.623,0.009-1.247,0.007-1.87,0.007c-59.489,0.001-118.979,0.001-178.469,0.001
		c-1.026,0-2.052,0-3.078,0C60.091,194.116,60.081,193.955,60.07,193.794z"/>
	<path fill-rule="evenodd" clip-rule="evenodd" fill="#2477B8" d="M135.241,5.723c-3.063,6.614-5.987,12.957-8.937,19.287
		C109.41,61.273,92.509,97.533,75.609,133.793c-5.821,12.49-11.682,24.963-17.437,37.482c-0.819,1.781-1.8,2.435-3.801,2.424
		c-16.83-0.087-33.66-0.047-50.49-0.052c-2.896-0.001-2.897-0.018-1.5-2.439c19.694-34.123,39.411-68.233,59.037-102.396
		c1.526-2.658,3.718-4.496,5.948-6.372c22.338-18.791,44.694-37.56,67.048-56.33C134.541,6.003,134.723,5.962,135.241,5.723z"/>
</g>
</svg>
