<?xml version="1.0" encoding="utf-8"?>
<!-- Generator: Adobe Illustrator 16.0.0, SVG Export Plug-In . SVG Version: 6.00 Build 0)  -->
<!DOCTYPE svg PUBLIC "-//W3C//DTD SVG 1.1//EN" "http://www.w3.org/Graphics/SVG/1.1/DTD/svg11.dtd">
<svg version="1.1" id="Layer_1" xmlns="http://www.w3.org/2000/svg" xmlns:xlink="http://www.w3.org/1999/xlink" x="0px" y="0px"
	 width="200px" height="200px" viewBox="0 0 200 200" enable-background="new 0 0 200 200" xml:space="preserve">
<g>
	<path id="XMLID_3_" fill="#9A4993" d="M185.53,60.392c-0.001-3.234-0.693-6.091-2.091-8.542c-1.374-2.41-3.432-4.432-6.19-6.028
		c-22.775-13.133-45.571-26.225-68.34-39.372C102.771,2.905,96.82,3.035,90.727,6.63c-9.065,5.346-54.452,31.349-67.976,39.182
		c-5.57,3.226-8.281,8.159-8.283,14.574c-0.007,26.409,0,52.819-0.007,79.228c0,3.162,0.663,5.963,2,8.379
		c1.374,2.483,3.459,4.56,6.283,6.193c13.525,7.833,58.917,33.836,67.98,39.184c6.095,3.596,12.048,3.724,18.188,0.181
		c22.769-13.146,45.566-26.239,68.346-39.371c2.822-1.634,4.908-3.712,6.282-6.194c1.335-2.414,1.998-5.215,2-8.378
		C185.539,139.607,185.539,86.801,185.53,60.392"/>
	<path id="XMLID_4_" fill="#6A1577" d="M100.261,99.743l-83.802,48.25c1.375,2.483,3.46,4.56,6.282,6.194
		c13.526,7.834,58.919,33.835,67.981,39.181c6.095,3.598,12.047,3.725,18.187,0.182c22.77-13.146,45.568-26.238,68.348-39.37
		c2.822-1.634,4.907-3.712,6.282-6.194L100.261,99.743"/>
	<path id="XMLID_5_" fill="#6A1577" d="M75.439,114.035c4.876,8.512,14.044,14.255,24.56,14.255
		c10.581,0,19.801-5.814,24.652-14.419l-24.39-14.126L75.439,114.035"/>
	<path id="XMLID_6_" fill="#813084" d="M185.53,60.392c-0.001-3.234-0.693-6.091-2.091-8.542l-83.178,47.894l83.278,48.243
		c1.335-2.414,1.997-5.214,1.999-8.378C185.539,139.607,185.539,86.801,185.53,60.392"/>
	<path id="XMLID_9_" fill="#FFFFFF" d="M124.651,113.871c-4.852,8.604-14.071,14.417-24.652,14.417
		c-10.516,0-19.682-5.741-24.56-14.254c-2.369-4.137-3.731-8.926-3.731-14.034c0-15.625,12.667-28.291,28.29-28.291
		c10.45,0,19.568,5.67,24.468,14.097l24.728-14.238c-9.829-16.965-28.178-28.381-49.195-28.381
		c-31.378,0-56.813,25.436-56.813,56.813c0,10.292,2.738,19.945,7.525,28.271c9.803,17.055,28.205,28.54,49.288,28.54
		c21.123,0,39.554-11.53,49.343-28.636L124.651,113.871"/>
	<g id="XMLID_32_">
		<rect id="XMLID_1_" x="150.277" y="86.568" fill="#FFFFFF" width="5.618" height="27.216"/>
		<rect id="XMLID_30_" x="162.745" y="86.568" fill="#FFFFFF" width="5.617" height="27.216"/>
		<rect id="XMLID_31_" x="145.711" y="91.134" fill="#FFFFFF" width="27.218" height="5.619"/>
		<rect id="XMLID_23_" x="145.711" y="103.6" fill="#FFFFFF" width="27.218" height="5.618"/>
	</g>
</g>
</svg>
