<?xml version="1.0" encoding="utf-8"?>
<!-- Generator: Adobe Illustrator 16.0.0, SVG Export Plug-In . SVG Version: 6.00 Build 0)  -->
<!DOCTYPE svg PUBLIC "-//W3C//DTD SVG 1.1//EN" "http://www.w3.org/Graphics/SVG/1.1/DTD/svg11.dtd">
<svg version="1.1" id="Layer_1" xmlns="http://www.w3.org/2000/svg" xmlns:xlink="http://www.w3.org/1999/xlink" x="0px" y="0px"
	 width="202.5px" height="200px" viewBox="0 0 202.5 200" enable-background="new 0 0 202.5 200" xml:space="preserve">
<g>
	<path fill-rule="evenodd" clip-rule="evenodd" fill="#466BB3" d="M101.775,197.402c-12.762,0-25.524,0.001-38.287-0.001
		c-1.957-0.001-3.882-0.21-5.731-0.919c-2.482-0.948-4.436-2.561-6.087-4.618c-9.784-12.19-19.586-24.367-29.384-36.548
		c-6.072-7.551-12.142-15.106-18.229-22.647c-2.165-2.683-3.292-5.712-3.179-9.168c0.056-1.664,0.525-3.263,0.895-4.873
		c5.234-22.802,10.476-45.6,15.719-68.398c0.262-1.137,0.564-2.267,0.802-3.409c0.965-4.621,3.62-7.851,7.882-9.861
		c7.175-3.384,14.318-6.829,21.475-10.249c15.718-7.511,31.446-14.996,47.144-22.547c4.347-2.091,8.567-2.085,12.907-0.005
		c22.777,10.907,45.565,21.792,68.372,32.634c4.463,2.121,7.138,5.476,8.236,10.286c5.605,24.512,11.267,49.011,16.909,73.516
		c1.028,4.464,0.132,8.467-2.756,12.056c-15.938,19.803-31.863,39.617-47.784,59.433c-2.92,3.634-6.718,5.294-11.349,5.277
		c-7.696-0.027-15.392,0.011-23.088,0.018c-4.822,0.004-9.646,0-14.467,0C101.775,197.386,101.775,197.395,101.775,197.402z
		 M98.143,44.059c0.115,0.814-0.051,2.132-1.118,3.196c-0.296,0.295-0.387,0.685-0.356,1.078c0.067,0.858-0.397,1.015-1.144,1.091
		c-1.498,0.153-2.993,0.38-4.474,0.664c-10.979,2.107-20.42,7.131-28.337,15.025c-0.845,0.842-0.857,0.854-1.887,0.248
		c-0.354-0.208-0.705-0.34-1.104-0.275c-1.115,0.184-1.99-0.3-2.794-0.982c-0.705-0.598-1.42-1.189-2.091-1.825
		c-1.414-1.34-2.765-2.74-4.066-4.194c-1.137-1.27-2.353-2.491-4.072-2.974c-1.694-0.477-3.196-0.122-4.382,1.212
		c-1.104,1.244-1.236,3.051-0.408,4.652c0.342,0.661,0.824,1.198,1.384,1.679c0.969,0.829,2.048,1.482,3.161,2.091
		c2.311,1.264,4.528,2.671,6.602,4.302c0.707,0.558,1.321,1.196,1.447,2.115c0.1,0.729,0.392,1.292,0.977,1.713
		c0.458,0.329,0.429,0.69,0.117,1.108c-0.203,0.272-0.367,0.573-0.545,0.864c-5.356,8.768-8.086,18.28-8.109,28.565
		c-0.006,2.244,0.194,4.474,0.412,6.7c0.036,0.369,0.266,0.87-0.291,0.971c-1.105,0.198-1.747,0.967-2.42,1.738
		c-0.441,0.506-1.086,0.633-1.701,0.771c-2.427,0.545-4.888,0.856-7.372,0.976c-1.509,0.073-3.017,0.181-4.467,0.633
		c-1.86,0.581-3.182,1.742-3.429,3.759c-0.338,2.758,2.156,4.927,5.106,4.484c1.401-0.211,2.728-0.69,4.039-1.232
		c2.565-1.057,5.172-1.993,7.901-2.574c0.765-0.162,1.465-0.128,2.115,0.239c0.674,0.38,1.337,0.561,2.083,0.301
		c0.487-0.171,0.729,0.087,0.879,0.5c0.117,0.319,0.224,0.644,0.34,0.964c3.164,8.799,8.272,16.275,15.272,22.47
		c2.193,1.94,4.538,3.677,7.013,5.243c1.149,0.729,1.159,0.736,0.726,1.992c-0.114,0.334-0.233,0.66-0.087,0.988
		c0.589,1.319,0.082,2.468-0.52,3.609c-1.182,2.245-2.496,4.405-3.985,6.459c-0.889,1.229-1.695,2.506-2.115,3.978
		c-0.91,3.188,1.501,6.005,4.629,5.409c1.375-0.262,2.375-1.09,3.075-2.273c0.547-0.924,0.992-1.898,1.268-2.942
		c0.536-2.025,1.286-3.98,1.969-5.958c0.382-1.104,0.807-2.194,1.443-3.186c0.317-0.492,0.645-1.015,1.243-1.184
		c0.812-0.229,1.354-0.706,1.668-1.479c0.174-0.429,0.48-0.582,0.937-0.368c0.264,0.123,0.547,0.203,0.823,0.297
		c8.872,3.066,17.928,3.884,27.193,2.258c3.029-0.531,5.995-1.277,8.88-2.337c0.702-0.258,1.199-0.238,1.507,0.537
		c0.164,0.412,0.427,0.752,0.909,0.875c1.097,0.279,1.683,1.102,2.109,2.068c0.412,0.935,0.833,1.868,1.201,2.819
		c0.684,1.771,1.247,3.583,1.782,5.404c0.454,1.544,0.996,3.077,2.205,4.224c1.266,1.2,2.765,1.632,4.439,1.005
		c1.641-0.61,2.37-1.942,2.57-3.6c0.108-0.892-0.155-1.735-0.508-2.549c-0.525-1.214-1.258-2.3-2.02-3.377
		c-1.547-2.189-2.991-4.442-4.11-6.888c-0.326-0.711-0.659-1.447-0.323-2.24c0.288-0.684,0.236-1.315-0.104-1.95
		c-0.259-0.483-0.097-0.828,0.37-1.076c0.257-0.136,0.498-0.306,0.744-0.463c7.754-4.942,13.862-11.438,18.36-19.453
		c1.575-2.809,2.871-5.743,3.933-8.785c0.388-1.113,0.405-1.149,1.489-0.983c0.48,0.074,0.857-0.009,1.231-0.271
		c0.778-0.544,1.645-0.57,2.523-0.366c0.899,0.211,1.792,0.45,2.678,0.714c2.102,0.625,4.139,1.425,6.167,2.255
		c1.403,0.575,2.862,0.989,4.408,0.792c1.741-0.22,3.005-1.114,3.571-2.809c0.579-1.73-0.048-3.147-1.315-4.337
		c-0.581-0.544-1.285-0.864-2.045-1.086c-1.51-0.442-3.062-0.521-4.619-0.613c-2.43-0.145-4.842-0.445-7.221-0.983
		c-0.938-0.211-1.742-0.604-2.287-1.431c-0.275-0.417-0.625-0.688-1.128-0.854c-1.021-0.334-1.007-0.374-0.873-1.45
		c0.836-6.752,0.284-13.407-1.428-19.975c-1.434-5.508-3.686-10.665-6.781-15.443c-0.436-0.673-0.611-1.173,0.163-1.692
		c0.409-0.274,0.677-0.655,0.715-1.204c0.078-1.107,0.764-1.855,1.595-2.505c2.118-1.653,4.379-3.083,6.735-4.363
		c1.117-0.607,2.181-1.285,3.138-2.124c0.634-0.555,1.123-1.212,1.432-1.999c1.172-2.991-1.001-5.881-4.199-5.578
		c-0.947,0.089-1.775,0.473-2.542,1.025c-1.195,0.861-2.173,1.942-3.156,3.027c-1.701,1.878-3.494,3.665-5.483,5.245
		c-0.672,0.534-1.408,0.922-2.267,0.866c-0.783-0.052-1.438,0.128-2.004,0.654c-0.43,0.4-0.775,0.235-1.113-0.137
		c-0.229-0.252-0.479-0.483-0.725-0.722c-5.245-5.149-11.288-9.073-18.107-11.815c-4.591-1.845-9.352-3.003-14.258-3.565
		c-0.69-0.079-1.068-0.255-1.068-1.018c0-0.473-0.047-0.977-0.478-1.33c-0.838-0.689-0.955-1.645-0.959-2.646
		c-0.016-2.882,0.312-5.733,0.837-8.561c0.225-1.211,0.25-2.425,0.177-3.638c-0.137-2.268-1.85-4.086-3.91-4.233
		c-2.038-0.145-3.824,1.316-4.349,3.561c-0.259,1.106-0.223,2.225-0.049,3.335C97.579,37.75,98.025,40.585,98.143,44.059z"/>
	<path fill-rule="evenodd" clip-rule="evenodd" fill="#FCFCFE" d="M98.143,44.059c-0.117-3.474-0.563-6.309-1.01-9.145
		c-0.174-1.11-0.21-2.229,0.049-3.335c0.524-2.245,2.311-3.706,4.349-3.561c2.061,0.146,3.773,1.965,3.91,4.233
		c0.073,1.213,0.048,2.427-0.177,3.638c-0.525,2.827-0.853,5.678-0.837,8.561c0.004,1.001,0.121,1.957,0.959,2.646
		c0.431,0.353,0.478,0.857,0.478,1.33c0,0.763,0.378,0.938,1.068,1.018c4.906,0.563,9.667,1.72,14.258,3.565
		c6.819,2.742,12.862,6.666,18.107,11.815c0.245,0.239,0.496,0.47,0.725,0.722c0.338,0.373,0.684,0.538,1.113,0.137
		c0.566-0.526,1.221-0.707,2.004-0.654c0.858,0.057,1.595-0.332,2.267-0.866c1.989-1.581,3.782-3.367,5.483-5.245
		c0.983-1.084,1.961-2.166,3.156-3.027c0.767-0.552,1.595-0.936,2.542-1.025c3.198-0.303,5.371,2.587,4.199,5.578
		c-0.309,0.787-0.798,1.444-1.432,1.999c-0.957,0.839-2.021,1.516-3.138,2.124c-2.356,1.28-4.617,2.71-6.735,4.363
		c-0.831,0.65-1.517,1.398-1.595,2.505c-0.038,0.549-0.306,0.93-0.715,1.204c-0.774,0.519-0.599,1.019-0.163,1.692
		c3.096,4.778,5.348,9.935,6.781,15.443c1.712,6.567,2.264,13.223,1.428,19.975c-0.134,1.076-0.148,1.116,0.873,1.45
		c0.503,0.165,0.853,0.437,1.128,0.854c0.545,0.827,1.349,1.22,2.287,1.431c2.379,0.538,4.791,0.839,7.221,0.983
		c1.558,0.092,3.109,0.171,4.619,0.613c0.76,0.222,1.464,0.542,2.045,1.086c1.268,1.189,1.895,2.606,1.315,4.337
		c-0.566,1.694-1.83,2.589-3.571,2.809c-1.546,0.197-3.005-0.217-4.408-0.792c-2.028-0.83-4.065-1.63-6.167-2.255
		c-0.886-0.264-1.778-0.503-2.678-0.714c-0.879-0.204-1.745-0.178-2.523,0.366c-0.374,0.262-0.751,0.345-1.231,0.271
		c-1.084-0.166-1.102-0.13-1.489,0.983c-1.062,3.042-2.357,5.977-3.933,8.785c-4.498,8.016-10.606,14.511-18.36,19.453
		c-0.246,0.157-0.487,0.327-0.744,0.463c-0.467,0.248-0.629,0.593-0.37,1.076c0.34,0.635,0.392,1.267,0.104,1.95
		c-0.336,0.793-0.003,1.529,0.323,2.24c1.119,2.445,2.563,4.698,4.11,6.888c0.762,1.077,1.494,2.163,2.02,3.377
		c0.353,0.813,0.616,1.657,0.508,2.549c-0.2,1.657-0.93,2.989-2.57,3.6c-1.675,0.627-3.174,0.195-4.439-1.005
		c-1.209-1.146-1.751-2.68-2.205-4.224c-0.535-1.821-1.099-3.633-1.782-5.404c-0.368-0.951-0.789-1.885-1.201-2.819
		c-0.427-0.967-1.013-1.789-2.109-2.068c-0.482-0.123-0.745-0.463-0.909-0.875c-0.308-0.775-0.805-0.795-1.507-0.537
		c-2.885,1.06-5.851,1.806-8.88,2.337c-9.266,1.626-18.321,0.809-27.193-2.258c-0.276-0.094-0.56-0.174-0.823-0.297
		c-0.456-0.214-0.763-0.061-0.937,0.368c-0.314,0.772-0.856,1.25-1.668,1.479c-0.599,0.169-0.926,0.691-1.243,1.184
		c-0.637,0.991-1.062,2.081-1.443,3.186c-0.683,1.978-1.433,3.933-1.969,5.958c-0.275,1.044-0.721,2.019-1.268,2.942
		c-0.7,1.184-1.7,2.012-3.075,2.273c-3.128,0.596-5.539-2.221-4.629-5.409c0.42-1.472,1.227-2.749,2.115-3.978
		c1.489-2.054,2.804-4.214,3.985-6.459c0.602-1.142,1.108-2.29,0.52-3.609c-0.146-0.328-0.027-0.654,0.087-0.988
		c0.434-1.256,0.424-1.263-0.726-1.992c-2.475-1.566-4.819-3.303-7.013-5.243c-7-6.194-12.108-13.671-15.272-22.47
		c-0.116-0.32-0.223-0.645-0.34-0.964c-0.15-0.413-0.392-0.671-0.879-0.5c-0.746,0.26-1.409,0.079-2.083-0.301
		c-0.65-0.367-1.351-0.401-2.115-0.239c-2.729,0.581-5.336,1.518-7.901,2.574c-1.312,0.542-2.638,1.021-4.039,1.232
		c-2.95,0.442-5.444-1.727-5.106-4.484c0.247-2.017,1.568-3.178,3.429-3.759c1.45-0.452,2.958-0.56,4.467-0.633
		c2.484-0.119,4.945-0.431,7.372-0.976c0.615-0.138,1.26-0.265,1.701-0.771c0.673-0.771,1.314-1.54,2.42-1.738
		c0.557-0.101,0.327-0.602,0.291-0.971c-0.218-2.227-0.418-4.456-0.412-6.7c0.023-10.285,2.753-19.797,8.109-28.565
		c0.178-0.291,0.342-0.592,0.545-0.864c0.312-0.418,0.341-0.779-0.117-1.108c-0.585-0.421-0.877-0.984-0.977-1.713
		c-0.126-0.919-0.74-1.557-1.447-2.115c-2.073-1.631-4.291-3.038-6.602-4.302c-1.113-0.609-2.192-1.262-3.161-2.091
		c-0.56-0.481-1.042-1.019-1.384-1.679c-0.828-1.601-0.696-3.408,0.408-4.652c1.186-1.333,2.688-1.689,4.382-1.212
		c1.72,0.483,2.936,1.704,4.072,2.974c1.302,1.454,2.652,2.854,4.066,4.194c0.671,0.636,1.386,1.227,2.091,1.825
		c0.804,0.682,1.679,1.166,2.794,0.982c0.398-0.065,0.749,0.066,1.104,0.275c1.029,0.607,1.042,0.594,1.887-0.248
		c7.917-7.894,17.357-12.917,28.337-15.025c1.48-0.284,2.976-0.511,4.474-0.664c0.746-0.076,1.211-0.233,1.144-1.091
		c-0.03-0.394,0.061-0.783,0.356-1.078C98.092,46.191,98.258,44.874,98.143,44.059z M141.893,118.225
		c-0.163-0.07-0.283-0.154-0.414-0.177c-6.858-1.171-13.717-2.344-20.577-3.493c-0.764-0.128-1.547-0.185-2.318,0.049
		c-1.663,0.505-3.347,2.466-2.205,5.216c2.648,6.383,5.285,12.772,7.938,19.154c0.372,0.893,0.404,0.881,1.242,0.354
		c0.247-0.155,0.487-0.322,0.725-0.492c6.592-4.682,11.494-10.736,14.726-18.144C141.353,119.901,141.753,119.119,141.893,118.225z
		 M64.38,80.845c-0.231,0.335-0.41,0.563-0.554,0.813c-4.492,7.763-6.313,16.136-5.697,25.061c0.074,1.08,0.185,1.148,1.249,0.842
		c6.068-1.747,12.136-3.5,18.201-5.258c0.651-0.189,1.313-0.371,1.935-0.637c2.579-1.104,3.197-3.826,1.354-5.966
		c-0.475-0.548-1.019-1.044-1.56-1.529c-3.618-3.248-7.243-6.489-10.869-9.728C67.104,83.25,65.761,82.068,64.38,80.845z
		 M71.021,72.516c0.358,0.286,0.613,0.51,0.889,0.707c5.44,3.86,10.884,7.718,16.329,11.572c0.357,0.253,0.726,0.497,1.117,0.688
		c2.21,1.088,4.682-0.102,5.217-2.516c0.136-0.616,0.235-1.249,0.269-1.878c0.35-6.268,0.688-12.539,1.012-18.808
		c0.094-1.81,0.066-1.83-1.788-1.506c-7.589,1.325-14.409,4.35-20.375,9.252C72.791,70.765,71.881,71.495,71.021,72.516z
		 M138.184,80.962c-0.499,0.064-0.696,0.364-0.942,0.583c-4.104,3.664-8.204,7.33-12.3,11.001c-1.124,1.008-2.297,1.971-3.33,3.064
		c-1.807,1.91-1.247,4.698,1.115,5.848c0.521,0.252,1.081,0.438,1.638,0.601c6.167,1.789,12.335,3.569,18.509,5.336
		c0.437,0.125,0.879,0.371,1.492,0.243C145.143,98.021,143.06,89.161,138.184,80.962z M115.089,144.483
		c-0.176-0.391-0.244-0.571-0.337-0.739c-3.276-5.92-6.552-11.841-9.841-17.755c-0.282-0.507-0.614-1.003-1.007-1.426
		c-1.499-1.62-3.979-1.557-5.408,0.128c-0.312,0.366-0.561,0.795-0.796,1.219c-3.235,5.834-6.464,11.668-9.685,17.509
		c-0.158,0.286-0.421,0.55-0.321,1.09C96.754,147.473,105.845,147.427,115.089,144.483z M77.755,139.671
		c0.41-0.262,0.475-0.613,0.603-0.921c2.512-6.06,5.023-12.121,7.519-18.187c0.24-0.579,0.438-1.192,0.533-1.81
		c0.237-1.538-0.319-2.775-1.618-3.637c-0.992-0.658-2.085-0.667-3.229-0.469c-4.402,0.763-8.812,1.489-13.219,2.231
		c-2.25,0.38-4.502,0.762-6.751,1.156c-0.875,0.153-0.897,0.208-0.621,1.019c0.109,0.322,0.236,0.638,0.366,0.952
		c2.526,6.07,6.248,11.295,11.14,15.678C74.133,137.169,75.868,138.562,77.755,139.671z M131.367,72.417
		c-6.939-6.585-15.087-10.578-24.63-11.868c-0.216,0.878-0.122,1.608-0.082,2.325c0.254,4.516,0.535,9.031,0.803,13.546
		c0.119,1.992,0.175,3.988,0.354,5.973c0.25,2.737,2.897,4.193,5.348,2.978c0.563-0.28,1.089-0.644,1.604-1.009
		c5.087-3.596,10.17-7.198,15.246-10.806C130.443,73.249,130.929,73,131.367,72.417z M108.656,102.176
		c0.069-0.374-0.094-0.656-0.317-0.934c-1.1-1.366-2.203-2.728-3.276-4.113c-0.342-0.44-0.756-0.544-1.271-0.542
		c-1.704,0.016-3.407,0.017-5.111,0c-0.527-0.005-0.917,0.147-1.254,0.579c-1.045,1.345-2.114,2.672-3.198,3.986
		c-0.341,0.411-0.446,0.788-0.309,1.327c0.408,1.603,0.764,3.219,1.106,4.837c0.13,0.616,0.403,1.032,1.005,1.302
		c1.51,0.679,3,1.396,4.479,2.14c0.532,0.271,0.979,0.269,1.51,0.001c1.479-0.741,2.98-1.438,4.471-2.153
		c0.351-0.169,0.734-0.312,0.837-0.748C107.773,105.965,108.214,104.069,108.656,102.176z"/>
	<path fill-rule="evenodd" clip-rule="evenodd" fill="#466BB3" d="M141.893,118.225c-0.14,0.895-0.54,1.677-0.885,2.468
		c-3.231,7.407-8.134,13.462-14.726,18.144c-0.237,0.17-0.478,0.337-0.725,0.492c-0.838,0.526-0.87,0.538-1.242-0.354
		c-2.652-6.382-5.289-12.771-7.938-19.154c-1.142-2.75,0.542-4.711,2.205-5.216c0.771-0.233,1.555-0.177,2.318-0.049
		c6.86,1.149,13.719,2.322,20.577,3.493C141.609,118.07,141.729,118.154,141.893,118.225z"/>
	<path fill-rule="evenodd" clip-rule="evenodd" fill="#466BB3" d="M64.38,80.845c1.381,1.224,2.725,2.405,4.06,3.597
		c3.626,3.239,7.251,6.48,10.869,9.728c0.541,0.485,1.085,0.98,1.56,1.529c1.843,2.141,1.225,4.862-1.354,5.966
		c-0.621,0.266-1.283,0.447-1.935,0.637c-6.065,1.758-12.133,3.511-18.201,5.258c-1.064,0.307-1.175,0.238-1.249-0.842
		c-0.615-8.924,1.205-17.297,5.697-25.061C63.97,81.408,64.148,81.18,64.38,80.845z"/>
	<path fill-rule="evenodd" clip-rule="evenodd" fill="#466BB3" d="M71.021,72.516c0.86-1.021,1.771-1.751,2.669-2.489
		c5.966-4.902,12.786-7.927,20.375-9.252c1.854-0.324,1.882-0.304,1.788,1.506c-0.324,6.27-0.662,12.54-1.012,18.808
		c-0.033,0.629-0.133,1.262-0.269,1.878c-0.535,2.414-3.007,3.604-5.217,2.516c-0.392-0.192-0.76-0.436-1.117-0.688
		c-5.445-3.854-10.889-7.712-16.329-11.572C71.634,73.026,71.379,72.801,71.021,72.516z"/>
	<path fill-rule="evenodd" clip-rule="evenodd" fill="#466BB3" d="M138.184,80.962c4.876,8.199,6.959,17.059,6.182,26.676
		c-0.613,0.128-1.056-0.118-1.492-0.243c-6.174-1.767-12.342-3.547-18.509-5.336c-0.557-0.162-1.116-0.349-1.638-0.601
		c-2.362-1.15-2.922-3.938-1.115-5.848c1.033-1.093,2.206-2.057,3.33-3.064c4.096-3.671,8.196-7.337,12.3-11.001
		C137.487,81.326,137.685,81.026,138.184,80.962z"/>
	<path fill-rule="evenodd" clip-rule="evenodd" fill="#466BB3" d="M115.089,144.483c-9.244,2.943-18.335,2.989-27.395,0.025
		c-0.1-0.54,0.163-0.804,0.321-1.09c3.221-5.841,6.449-11.675,9.685-17.509c0.235-0.424,0.484-0.853,0.796-1.219
		c1.43-1.685,3.909-1.748,5.408-0.128c0.393,0.423,0.725,0.919,1.007,1.426c3.289,5.914,6.564,11.835,9.841,17.755
		C114.845,143.912,114.913,144.093,115.089,144.483z"/>
	<path fill-rule="evenodd" clip-rule="evenodd" fill="#466BB3" d="M77.755,139.671c-1.887-1.109-3.622-2.502-5.277-3.986
		c-4.892-4.383-8.613-9.607-11.14-15.678c-0.13-0.314-0.257-0.63-0.366-0.952c-0.276-0.811-0.254-0.865,0.621-1.019
		c2.249-0.395,4.501-0.776,6.751-1.156c4.407-0.742,8.816-1.469,13.219-2.231c1.144-0.198,2.236-0.189,3.229,0.469
		c1.299,0.861,1.855,2.099,1.618,3.637c-0.095,0.617-0.293,1.23-0.533,1.81c-2.495,6.065-5.007,12.127-7.519,18.187
		C78.229,139.058,78.165,139.409,77.755,139.671z"/>
	<path fill-rule="evenodd" clip-rule="evenodd" fill="#466BB3" d="M131.367,72.417c-0.438,0.582-0.924,0.831-1.357,1.139
		c-5.076,3.607-10.159,7.21-15.246,10.806c-0.515,0.365-1.041,0.729-1.604,1.009c-2.45,1.216-5.098-0.241-5.348-2.978
		c-0.18-1.985-0.235-3.981-0.354-5.973c-0.268-4.515-0.549-9.03-0.803-13.546c-0.04-0.717-0.134-1.447,0.082-2.325
		C116.28,61.839,124.428,65.833,131.367,72.417z"/>
	<path fill-rule="evenodd" clip-rule="evenodd" fill="#466BB3" d="M108.656,102.176c-0.442,1.894-0.883,3.789-1.329,5.682
		c-0.103,0.437-0.486,0.579-0.837,0.748c-1.49,0.716-2.992,1.412-4.471,2.153c-0.53,0.268-0.978,0.27-1.51-0.001
		c-1.479-0.744-2.969-1.461-4.479-2.14c-0.602-0.27-0.875-0.686-1.005-1.302c-0.343-1.618-0.698-3.234-1.106-4.837
		c-0.138-0.539-0.032-0.916,0.309-1.327c1.084-1.314,2.153-2.641,3.198-3.986c0.337-0.431,0.727-0.583,1.254-0.579
		c1.704,0.017,3.407,0.016,5.111,0c0.515-0.002,0.929,0.102,1.271,0.542c1.073,1.385,2.177,2.748,3.276,4.113
		C108.563,101.52,108.726,101.802,108.656,102.176z"/>
</g>
</svg>
