<?xml version="1.0" encoding="utf-8"?>
<!-- Generator: Adobe Illustrator 16.0.0, SVG Export Plug-In . SVG Version: 6.00 Build 0)  -->
<!DOCTYPE svg PUBLIC "-//W3C//DTD SVG 1.1//EN" "http://www.w3.org/Graphics/SVG/1.1/DTD/svg11.dtd">
<svg version="1.1" id="Layer_1" xmlns="http://www.w3.org/2000/svg" xmlns:xlink="http://www.w3.org/1999/xlink" x="0px" y="0px"
	 width="425px" height="200px" viewBox="0 0 425 200" enable-background="new 0 0 425 200" xml:space="preserve">
<g>
	<path fill-rule="evenodd" clip-rule="evenodd" fill="#107EC2" d="M342.795,90.88c0,5.962-0.013,11.926,0.008,17.888
		c0.007,2.195,0.3,4.357,0.865,6.487c0.841,3.167,2.819,5.05,6.055,5.671c1.418,0.272,2.837,0.356,4.272,0.406
		c1.708,0.058,2.427,0.767,2.619,2.48c0.05,0.448,0.044,0.904,0.045,1.356c0.003,3.396,0.003,6.793,0,10.19
		c0,0.452-0.01,0.906-0.033,1.357c-0.055,0.992-0.563,1.741-1.415,2.174c-0.731,0.371-1.522,0.709-2.324,0.848
		c-4.612,0.799-9.18,0.573-13.633-0.922c-3.3-1.108-6.019-3.095-8.218-5.792c-0.285-0.351-0.541-0.727-0.84-1.065
		c-0.219-0.249-0.517-0.31-0.801-0.104c-0.489,0.353-0.961,0.73-1.445,1.09c-6.258,4.641-13.313,7.071-21.073,7.189
		c-8.844,0.136-16.802-2.585-23.654-8.224c-7.568-6.228-12.076-14.268-13.139-24.004c-2.181-19.952,11.275-36.476,29.369-39.95
		c7.627-1.465,15.021-0.49,22.1,2.751c0.548,0.251,1.089,0.52,1.645,0.754c0.422,0.178,0.76,0.011,0.853-0.408
		c0.082-0.367,0.108-0.746,0.188-1.114c0.313-1.428,1.294-2.152,2.651-2.454c0.218-0.048,0.45-0.049,0.675-0.049
		c3.926-0.002,7.852-0.043,11.775,0.017c2.054,0.032,3.177,1.164,3.282,3.273c0.104,2.108,0.067,4.226,0.07,6.338
		c0.009,4.604,0.003,9.208,0.003,13.813C342.728,90.88,342.763,90.88,342.795,90.88z M306.195,121.832
		c9.874,0.235,18.137-8.098,18.231-17.995c0.087-8.948-7.072-18.294-18.228-18.272c-10.421,0.021-18.111,8.443-18.111,18.152
		C288.088,114.24,296.897,122.071,306.195,121.832z"/>
	<path fill-rule="evenodd" clip-rule="evenodd" fill="#107EC2" d="M149.19,91.354c0-14.492,0-28.984,0.002-43.475
		c0-0.754-0.032-1.515,0.043-2.263c0.152-1.517,1.112-2.474,2.606-2.67c0.297-0.039,0.603-0.03,0.904-0.03
		c3.773-0.002,7.548-0.003,11.322,0c0.377,0,0.76-0.014,1.129,0.046c1.4,0.226,2.296,1.168,2.419,2.575
		c0.06,0.675,0.035,1.357,0.035,2.036c0.001,12.53,0,25.059,0.004,37.588c0,0.753-0.014,1.517,0.097,2.257
		c0.194,1.286,0.88,2.246,2.17,2.641c1.256,0.384,2.4,0.152,3.325-0.818c1.51-1.585,3.009-3.18,4.498-4.785
		c4.671-5.035,9.363-10.051,13.984-15.13c1.212-1.333,2.536-1.955,4.354-1.921c4.452,0.085,8.906,0.027,13.359,0.03
		c0.453,0,0.914-0.03,1.355,0.046c1.39,0.239,2.308,1.003,2.66,2.424c0.237,0.956,0.045,1.803-0.508,2.567
		c-0.397,0.548-0.862,1.049-1.316,1.554c-6.918,7.685-13.838,15.366-20.76,23.048c-0.758,0.841-1.51,1.681-2.025,2.71
		c-0.509,1.019-0.537,2.008-0.04,3.041c0.632,1.313,1.545,2.412,2.545,3.443c2.417,2.492,4.853,4.966,7.278,7.45
		c6.485,6.643,12.969,13.287,19.452,19.932c0.369,0.378,0.768,0.737,1.074,1.163c0.78,1.083,0.765,2.28,0.236,3.437
		c-0.475,1.036-1.349,1.598-2.519,1.629c-0.302,0.009-0.604,0.015-0.906,0.015c-5.132,0-10.266-0.045-15.397,0.026
		c-1.65,0.023-2.837-0.548-3.962-1.731c-7.173-7.55-14.4-15.051-21.612-22.565c-0.627-0.653-1.252-1.312-1.916-1.925
		c-0.957-0.885-2.037-1.224-3.326-0.722c-1.272,0.496-1.884,1.463-2.069,2.737c-0.085,0.593-0.053,1.204-0.053,1.808
		c-0.003,5.963-0.002,11.926-0.003,17.888c0,0.529,0.021,1.06-0.013,1.585c-0.093,1.448-0.867,2.391-2.278,2.709
		c-0.507,0.114-1.047,0.115-1.573,0.116c-3.547,0.01-7.095,0.006-10.642,0.006c-0.227,0-0.453,0.004-0.68-0.008
		c-2.272-0.116-3.135-0.953-3.245-3.176c-0.034-0.677-0.01-1.358-0.01-2.037C149.19,120.187,149.19,105.77,149.19,91.354z"/>
	<path fill-rule="evenodd" clip-rule="evenodd" fill="#107EC2" d="M103.959,67.356c18.94-0.109,36.223,15.255,36.225,36.382
		c0.002,20.379-16.287,36.439-36.46,36.396c-21.139-0.046-36.434-17.427-36.352-36.521C67.458,83.624,83.915,67.115,103.959,67.356z
		 M103.708,121.848c9.877,0.216,18.137-8.073,18.238-17.993c0.093-9.2-7.273-18.293-18.208-18.289
		c-10.17,0.004-18.098,8.17-18.126,18.147C85.583,114.071,94.195,122.018,103.708,121.848z"/>
	<path fill-rule="evenodd" clip-rule="evenodd" fill="#C3C2C3" d="M389.57,137.687c0-2.793,0.095-5.589-0.025-8.377
		c-0.135-3.104,0.34-6.164,0.519-9.241c0.118-2.008,0.771-3.985,1.473-5.895c1.5-4.085,3.925-7.611,6.764-10.863
		c0.487-0.56,1.162-0.952,1.727-1.448c1.07-0.939,1.16-2.111,0.235-3.17c-0.396-0.454-0.848-0.86-1.275-1.285
		c-4.052-4.017-6.856-8.772-8.317-14.282c-0.421-1.587-0.604-3.232-0.742-4.893c-0.754-9.116-0.164-18.243-0.361-27.362
		c-0.047-2.16-0.551-4.156-1.548-6.062c-0.618-1.184-1.473-2.075-2.676-2.654c-1.232-0.592-2.516-0.902-3.876-1.124
		c-3.906-0.637-7.826-0.245-11.736-0.362c-1.056-0.032-2.116-0.048-3.171,0.003c-1.229,0.059-1.924-0.375-2.326-1.964
		c-0.073-0.286-0.048-0.601-0.049-0.902c-0.003-2.491-0.021-4.982,0.006-7.473c0.018-1.513,0.742-2.389,2.204-2.693
		c0.51-0.106,1.049-0.086,1.576-0.087c3.321-0.007,6.647-0.116,9.961,0.031c2.771,0.123,5.557,0.299,8.278,0.902
		c1.86,0.412,3.591,1.237,5.161,2.262c2.855,1.868,5.38,4.157,7.245,7.043c2.282,3.53,3.522,7.427,4.116,11.605
		c0.417,2.938,0.355,5.859,0.38,8.791c0.038,4.529,0.019,9.057,0.021,13.587c0.001,2.267,0.376,4.487,0.863,6.689
		c0.359,1.626,0.971,3.173,1.792,4.617c2.279,4,4.94,7.747,7.873,11.288c1.147,1.386,2.434,2.684,3.895,3.772
		c0.182,0.134,0.386,0.244,0.544,0.401c0.798,0.793,0.903,1.734,0.244,2.635c-0.308,0.421-0.673,0.838-1.1,1.127
		c-1.268,0.859-2.173,2.051-3.207,3.145c-2.665,2.817-4.756,6.036-6.827,9.267c-1.546,2.412-2.916,4.95-3.383,7.837
		c-0.312,1.924-0.699,3.841-0.698,5.808c0.003,6.189,0.076,12.381-0.051,18.567c-0.092,4.551-1.011,8.989-3.093,13.068
		c-1.368,2.679-3.062,5.169-5.57,7.006c-1.027,0.751-1.88,1.736-3.002,2.386c-2.302,1.333-4.755,2.182-7.384,2.66
		c-2.399,0.438-4.798,0.393-7.205,0.398c-3.244,0.009-6.49,0.022-9.735-0.006c-1.996-0.018-2.874-0.907-2.899-2.911
		c-0.03-2.415-0.011-4.831-0.004-7.247c0.001-0.376-0.007-0.763,0.076-1.124c0.226-0.976,0.854-1.602,1.84-1.761
		c0.591-0.095,1.204-0.059,1.808-0.06c3.774-0.006,7.549-0.034,11.321,0.006c1.609,0.016,3.122-0.362,4.653-0.771
		c2.415-0.645,3.856-2.308,4.724-4.492c0.608-1.532,0.977-3.147,0.959-4.843c-0.041-3.85-0.012-7.699-0.012-11.549
		C389.559,137.687,389.563,137.687,389.57,137.687z"/>
	<path fill-rule="evenodd" clip-rule="evenodd" fill="#C3C2C3" d="M21.684,136.348c0-3.171,0.056-6.343-0.016-9.512
		c-0.077-3.43-0.805-6.729-2.532-9.73c-1.992-3.465-4.18-6.795-6.713-9.902c-1.626-1.995-3.315-3.89-5.393-5.437
		c-1.011-0.753-1.053-2.047-0.228-2.994c0.445-0.51,0.964-0.956,1.457-1.424c4.638-4.404,8.292-9.537,11.251-15.183
		c1.462-2.791,2.109-5.808,2.151-8.917c0.082-6.113-0.041-12.23,0.068-18.343c0.087-4.917,0.854-9.742,2.939-14.26
		c1.412-3.059,3.517-5.62,6.045-7.814c2.785-2.417,6.009-3.986,9.646-4.674c0.295-0.056,0.588-0.157,0.885-0.169
		c4.967-0.213,9.929-0.647,14.907-0.423c0.971,0.044,1.94,0.231,2.9,0.409c0.879,0.163,1.442,0.809,1.559,1.702
		c0.039,0.297,0.031,0.603,0.031,0.904c0.002,2.491-0.079,4.986,0.028,7.472c0.074,1.721-0.978,2.683-2.58,2.641
		c-3.621-0.093-7.247,0.012-10.869-0.045c-1.75-0.028-3.47,0.269-5.148,0.582c-3.449,0.644-5.538,2.904-6.273,6.323
		c-0.362,1.687-0.577,3.396-0.566,5.148c0.048,7.625,0.113,15.25-0.018,22.873c-0.079,4.537-0.936,8.939-3.052,13.068
		c-1.706,3.327-3.734,6.362-6.464,8.919c-0.44,0.413-0.88,0.832-1.268,1.293c-0.619,0.735-0.635,1.527-0.032,2.255
		c0.433,0.521,0.934,0.986,1.42,1.462c3.625,3.544,6.216,7.761,7.866,12.521c0.609,1.758,0.923,3.623,1.218,5.492
		c0.427,2.713,0.327,5.41,0.341,8.116c0.034,6.644,0.034,13.287,0.007,19.929c-0.008,1.923,0.462,3.73,1.08,5.511
		c0.927,2.677,2.945,4.105,5.617,4.712c1.694,0.384,3.411,0.523,5.155,0.496c3.321-0.05,6.643-0.015,9.964-0.012
		c0.528,0,1.069-0.046,1.581,0.051c1.162,0.22,2.045,0.846,2.01,2.286c-0.065,2.716,0.019,5.436-0.03,8.152
		c-0.033,1.817-0.821,2.594-2.675,2.607c-4.68,0.035-9.366,0.146-14.04-0.036c-4.441-0.171-8.622-1.453-12.158-4.264
		c-4.31-3.423-7.347-7.732-8.695-13.15c-0.895-3.594-1.402-7.226-1.359-10.935c0.029-2.566,0.006-5.133,0.006-7.7
		C21.698,136.348,21.69,136.348,21.684,136.348z"/>
	<path fill-rule="evenodd" clip-rule="evenodd" fill="#107EC2" d="M222.962,76.024c0-9.509-0.001-19.017,0.001-28.526
		c0-0.678-0.035-1.365,0.051-2.034c0.184-1.437,1.078-2.316,2.5-2.51c0.445-0.061,0.903-0.04,1.356-0.041
		c3.471-0.002,6.942-0.002,10.414-0.001c0.377,0,0.757-0.016,1.131,0.019c1.717,0.158,2.726,1.169,2.885,2.911
		c0.048,0.524,0.019,1.056,0.02,1.584c0.008,5.056,0.014,10.112,0.022,15.168c0.001,0.603-0.029,1.21,0.029,1.81
		c0.157,1.628,1.271,2.775,2.902,2.978c0.596,0.074,1.205,0.046,1.809,0.047c4.604,0.003,9.207-0.005,13.811,0.005
		c2.867,0.007,3.962,1.052,3.998,3.932c0.045,3.546,0.015,7.093,0.003,10.64c-0.002,0.448-0.05,0.909-0.162,1.34
		c-0.344,1.311-1.227,2.059-2.563,2.177c-0.599,0.053-1.206,0.027-1.809,0.028c-4.378,0.002-8.754,0-13.132,0.002
		c-0.528,0-1.06-0.03-1.584,0.024c-1.84,0.192-3.048,1.383-3.249,3.203c-0.058,0.522-0.033,1.055-0.033,1.583
		c-0.004,4.604,0.012,9.208-0.008,13.81c-0.037,8.617,6.526,16.373,15.186,17.664c1.732,0.257,3.444,0.395,5.177,0.072
		c0.751-0.14,1.495-0.139,2.213,0.21c1.141,0.553,1.624,1.531,1.771,2.714c0.178,1.422,0.323,2.847,0.467,4.273
		c0.22,2.176,0.436,4.353,0.635,6.531c0.287,3.145-0.627,4.28-3.81,4.55c-4.237,0.357-8.44,0.118-12.581-0.943
		c-13.667-3.501-24.66-14.81-27.01-29.739c-0.304-1.932-0.458-3.89-0.453-5.862C222.975,94.438,222.962,85.231,222.962,76.024z"/>
</g>
</svg>
