<?xml version="1.0" encoding="utf-8"?>
<!-- Generator: Adobe Illustrator 16.0.0, SVG Export Plug-In . SVG Version: 6.00 Build 0)  -->
<!DOCTYPE svg PUBLIC "-//W3C//DTD SVG 1.1//EN" "http://www.w3.org/Graphics/SVG/1.1/DTD/svg11.dtd">
<svg version="1.1" id="Layer_1" xmlns="http://www.w3.org/2000/svg" xmlns:xlink="http://www.w3.org/1999/xlink" x="0px" y="0px"
	 width="200px" height="200px" viewBox="0 0 200 200" enable-background="new 0 0 200 200" xml:space="preserve">
<circle fill-rule="evenodd" clip-rule="evenodd" fill="none" stroke="#4A7EC0" stroke-width="9" stroke-miterlimit="10" cx="42.25" cy="42.5" r="36.75"/>
<path fill-rule="evenodd" clip-rule="evenodd" fill="none" stroke="#4A7EC0" stroke-width="9" stroke-miterlimit="10" d="
	M71.5,169.75h-5.75c-14.912,0-27-12.088-27-27V79.5"/>
<path fill-rule="evenodd" clip-rule="evenodd" fill="none" stroke="#4A7EC0" stroke-width="9" stroke-miterlimit="10" d="
	M71.5,105.25h-5.75c-14.912,0-27-12.088-27-27"/>
<circle fill-rule="evenodd" clip-rule="evenodd" fill="none" stroke="#4A7EC0" stroke-width="9" stroke-miterlimit="10" cx="95.614" cy="103.614" r="24.593"/>
<circle fill-rule="evenodd" clip-rule="evenodd" fill="none" stroke="#4A7EC0" stroke-width="9" stroke-miterlimit="10" cx="169.379" cy="103.614" r="24.593"/>
<circle fill-rule="evenodd" clip-rule="evenodd" fill="none" stroke="#4A7EC0" stroke-width="9" stroke-miterlimit="10" cx="95.614" cy="169.614" r="24.593"/>
<circle fill-rule="evenodd" clip-rule="evenodd" fill="none" stroke="#86B4E0" stroke-width="9" stroke-miterlimit="10" cx="169.379" cy="169.75" r="24.593"/>
<line fill-rule="evenodd" clip-rule="evenodd" fill="none" stroke="#4A7EC0" stroke-width="9" stroke-miterlimit="10" x1="122.5" y1="105.25" x2="143.75" y2="105.25"/>
<line fill="none" stroke="#86B4E0" stroke-width="9" stroke-linecap="round" stroke-miterlimit="10" x1="144.786" y1="169.75" x2="136.582" y2="169.75"/>
<circle fill="#86B4E0" cx="87.878" cy="169.725" r="4.401"/>
<circle fill="#86B4E0" cx="103.878" cy="169.725" r="4.401"/>
<polyline fill="none" stroke="#4A7EC0" stroke-width="9" stroke-linecap="round" stroke-linejoin="round" stroke-miterlimit="10" points="
	85.5,105.25 92.186,111.936 105.39,98.731 "/>
<polyline fill="none" stroke="#4A7EC0" stroke-width="9" stroke-linecap="round" stroke-linejoin="round" stroke-miterlimit="10" points="
	159.5,105.25 166.186,111.936 179.39,98.731 "/>
<polygon fill-rule="evenodd" clip-rule="evenodd" fill="none" stroke="#4A7EC0" stroke-width="9" stroke-linejoin="round" stroke-miterlimit="10" points="
	30.563,24.313 30.563,60.188 60.938,42.5 "/>
</svg>
