<?xml version="1.0" encoding="utf-8"?>
<!-- Generator: Adobe Illustrator 16.0.0, SVG Export Plug-In . SVG Version: 6.00 Build 0)  -->
<!DOCTYPE svg PUBLIC "-//W3C//DTD SVG 1.1//EN" "http://www.w3.org/Graphics/SVG/1.1/DTD/svg11.dtd">
<svg version="1.1" id="Layer_1" xmlns="http://www.w3.org/2000/svg" xmlns:xlink="http://www.w3.org/1999/xlink" x="0px" y="0px"
	 width="278.523px" height="200px" viewBox="0 0 278.523 200" enable-background="new 0 0 278.523 200" xml:space="preserve">
<g>
	<path fill-rule="evenodd" clip-rule="evenodd" fill="#4591CE" d="M153.363,1.094c1.061,0.694,1.4,1.675,1.393,2.931
		c-0.038,6.676-0.012,13.353-0.021,20.03c-0.002,2.235-0.646,2.89-2.836,2.893c-7.638,0.008-15.274,0.008-22.912,0
		c-2.163-0.002-2.813-0.638-2.817-2.76c-0.008-6.723,0.017-13.445-0.019-20.167c-0.008-1.253,0.329-2.239,1.399-2.926
		C136.153,1.094,144.76,1.094,153.363,1.094z"/>
	<path fill-rule="evenodd" clip-rule="evenodd" fill="#4591CE" d="M100.905,94.714c29.978,0,59.952,0.058,89.928-0.044
		c6.624-0.022,13.102-1.317,19.231-3.979c1.745-0.757,1.71-0.792,0.773-2.469c-5.43-9.733-6.024-19.99-3.2-30.576
		c1.691-6.344,4.526-12.159,8.43-17.452c0.502-0.681,0.892-1.004,1.777-0.52c9.917,5.42,17.005,13.293,20.892,23.96
		c0.675,1.851,1.203,3.753,1.493,5.702c0.168,1.115,0.521,1.503,1.775,1.316c7.662-1.14,15.309-1.228,22.871,0.754
		c4.112,1.079,7.947,2.713,11.23,5.528c0.861,0.741,1.1,1.328,0.715,2.427c-3.929,11.227-11.808,18.484-22.728,22.667
		c-5.669,2.172-11.606,2.911-17.646,2.826c-1.323-0.019-1.929,0.447-2.407,1.648c-5.261,13.168-11.477,25.84-19.676,37.468
		c-14.751,20.917-34.101,35.881-58.068,44.869c-12.888,4.833-26.21,7.772-39.891,9.106c-7.883,0.771-15.794,1.104-23.71,0.838
		c-14.551-0.488-28.902-2.263-42.739-7.103c-9.396-3.285-17.74-8.241-24.571-15.563c-6.122-6.563-10.733-14.104-14.238-22.342
		c-4.585-10.778-7.273-22.035-8.62-33.651c-0.581-5.005-0.688-10.031-0.979-15.05c-0.084-1.423,0.032-2.842,0.435-4.214
		c1.124-3.832,4.342-6.141,8.585-6.143c24.117-0.007,48.235-0.004,72.353-0.005C88.917,94.714,94.911,94.714,100.905,94.714z"/>
	<path fill-rule="evenodd" clip-rule="evenodd" fill="#4591CE" d="M72.825,32.354c3.843,0,7.685-0.009,11.528,0.003
		c2.013,0.006,2.755,0.685,2.765,2.707c0.027,6.77,0.03,13.542-0.005,20.312c-0.01,2.021-0.876,2.827-2.887,2.831
		c-7.639,0.014-15.279,0.014-22.92,0c-2.013-0.004-2.886-0.808-2.896-2.82c-0.038-6.771-0.036-13.541-0.006-20.312
		c0.008-2.026,0.75-2.711,2.756-2.717C65.049,32.344,68.936,32.354,72.825,32.354z"/>
	<path fill-rule="evenodd" clip-rule="evenodd" fill="#4591CE" d="M106.799,32.354c3.889,0,7.777-0.01,11.666,0.004
		c1.929,0.006,2.691,0.693,2.702,2.628c0.034,6.817,0.036,13.633-0.004,20.45c-0.011,1.945-0.888,2.764-2.809,2.768
		c-7.686,0.017-15.372,0.016-23.057,0c-1.928-0.004-2.826-0.82-2.838-2.742c-0.04-6.862-0.04-13.724,0.002-20.586
		c0.012-1.835,0.806-2.511,2.671-2.519C99.021,32.344,102.91,32.354,106.799,32.354z"/>
	<path fill-rule="evenodd" clip-rule="evenodd" fill="#4591CE" d="M72.751,89.289c-3.843,0.001-7.687,0.012-11.528-0.003
		c-2.041-0.007-2.786-0.642-2.801-2.686c-0.051-6.816-0.048-13.633-0.005-20.45c0.012-1.922,0.913-2.708,2.84-2.71
		c7.687-0.008,15.372-0.009,23.059,0.001c1.891,0.002,2.768,0.737,2.781,2.606c0.049,6.954,0.046,13.908-0.001,20.861
		c-0.012,1.666-0.832,2.362-2.541,2.373C80.619,89.305,76.686,89.288,72.751,89.289z"/>
	<path fill-rule="evenodd" clip-rule="evenodd" fill="#4591CE" d="M106.817,89.291c-3.844,0-7.687,0.01-11.529-0.005
		c-2.081-0.007-2.833-0.713-2.841-2.795c-0.027-6.679-0.027-13.359,0-20.038c0.009-2.277,0.81-3.013,3.091-3.015
		c7.55-0.004,15.098-0.005,22.646,0.001c2.102,0.001,2.972,0.773,2.982,2.854c0.035,6.725,0.038,13.45-0.004,20.176
		c-0.015,2.185-0.745,2.813-2.954,2.819C114.411,89.298,110.614,89.291,106.817,89.291z"/>
	<path fill-rule="evenodd" clip-rule="evenodd" fill="#4591CE" d="M174.413,89.29c-3.843,0.001-7.684,0.011-11.526-0.002
		c-2.066-0.007-2.846-0.694-2.86-2.791c-0.045-6.769-0.042-13.538,0-20.307c0.013-1.937,0.9-2.743,2.823-2.746
		c7.729-0.015,15.458-0.014,23.188-0.001c1.784,0.003,2.663,0.762,2.677,2.571c0.051,6.951,0.049,13.904,0.006,20.855
		c-0.012,1.72-0.844,2.406-2.644,2.416C182.188,89.303,178.302,89.289,174.413,89.29z"/>
	<path fill-rule="evenodd" clip-rule="evenodd" fill="#4591CE" d="M140.438,32.354c3.888,0,7.775-0.012,11.664,0.004
		c1.958,0.009,2.628,0.688,2.631,2.663c0.011,6.815,0.012,13.63-0.001,20.446c-0.004,1.995-0.743,2.735-2.746,2.738
		c-7.685,0.014-15.369,0.014-23.055,0c-2.011-0.003-2.755-0.737-2.758-2.726c-0.016-6.861-0.017-13.722,0-20.583
		c0.004-1.881,0.68-2.529,2.6-2.537C132.661,32.342,136.55,32.354,140.438,32.354z"/>
	<path fill-rule="evenodd" clip-rule="evenodd" fill="#4591CE" d="M140.6,63.437c3.75,0,7.501-0.009,11.251,0.003
		c2.192,0.006,2.881,0.687,2.884,2.868c0.01,6.722,0.011,13.444-0.001,20.166c-0.003,2.131-0.677,2.812-2.775,2.814
		c-7.682,0.009-15.364,0.009-23.047-0.001c-2.064-0.002-2.737-0.663-2.739-2.697c-0.012-6.767-0.012-13.535,0-20.303
		c0.002-2.164,0.702-2.841,2.904-2.847C132.918,63.428,136.759,63.437,140.6,63.437z"/>
	<path fill-rule="evenodd" clip-rule="evenodd" fill="#4591CE" d="M39.197,89.29c-3.887,0-7.773,0.011-11.66-0.005
		c-1.846-0.007-2.627-0.704-2.638-2.546c-0.037-6.903-0.035-13.808-0.004-20.711c0.009-1.769,0.891-2.581,2.663-2.584
		c7.772-0.014,15.544-0.016,23.317,0.002c1.847,0.004,2.562,0.744,2.565,2.603c0.014,6.904,0.015,13.808-0.001,20.711
		c-0.005,1.918-0.624,2.516-2.585,2.524C46.971,89.302,43.084,89.29,39.197,89.29z"/>
</g>
</svg>
