<?xml version="1.0" encoding="utf-8"?>
<!-- Generator: Adobe Illustrator 16.0.0, SVG Export Plug-In . SVG Version: 6.00 Build 0)  -->
<!DOCTYPE svg PUBLIC "-//W3C//DTD SVG 1.1//EN" "http://www.w3.org/Graphics/SVG/1.1/DTD/svg11.dtd">
<svg version="1.1" id="Layer_1" xmlns="http://www.w3.org/2000/svg" xmlns:xlink="http://www.w3.org/1999/xlink" x="0px" y="0px"
	 width="15.699px" height="9.17px" viewBox="0 0 15.699 9.17" enable-background="new 0 0 15.699 9.17" xml:space="preserve">
<g id="down-arrow" transform="translate(0 -127.244)">
	<g id="_x31_0_34_" transform="translate(0 127.244)">
		<g id="Group_20">
			<path id="Path_24" fill="#FFFFFF" d="M15.505,0.194c-0.256-0.256-0.67-0.257-0.927-0.002c-0.001,0.001-0.001,0.002-0.003,0.002
				L7.849,7.576L1.121,0.194c-0.255-0.256-0.67-0.257-0.926-0.002C0.194,0.192,0.193,0.193,0.192,0.194
				c-0.256,0.259-0.256,0.676,0,0.934l7.159,7.855c0.132,0.131,0.314,0.199,0.5,0.187c0.186,0.013,0.368-0.056,0.5-0.187l7.16-7.856
				C15.765,0.867,15.763,0.45,15.505,0.194z"/>
		</g>
	</g>
</g>
</svg>
