<?xml version="1.0" encoding="utf-8"?>
<!-- Generator: Adobe Illustrator 16.0.0, SVG Export Plug-In . SVG Version: 6.00 Build 0)  -->
<!DOCTYPE svg PUBLIC "-//W3C//DTD SVG 1.1//EN" "http://www.w3.org/Graphics/SVG/1.1/DTD/svg11.dtd">
<svg version="1.1" id="Layer_1" xmlns="http://www.w3.org/2000/svg" xmlns:xlink="http://www.w3.org/1999/xlink" x="0px" y="0px"
	 width="26.07px" height="32.633px" viewBox="0 0 26.07 32.633" enable-background="new 0 0 26.07 32.633" xml:space="preserve">
<g id="download" transform="translate(-3.282)">
	<path id="Path_1" fill="#FFFFFF" d="M16.317,32.633c-0.276,0-0.5-0.223-0.5-0.5V0.5c0-0.276,0.224-0.5,0.5-0.5s0.5,0.224,0.5,0.5
		v31.633C16.817,32.411,16.593,32.633,16.317,32.633z"/>
	<path id="Path_2" fill="#FFFFFF" d="M16.315,32.633L16.315,32.633c-0.133,0.001-0.26-0.052-0.354-0.145L3.428,19.952
		c-0.192-0.199-0.187-0.516,0.012-0.707c0.194-0.188,0.501-0.188,0.695,0l12.179,12.182L28.5,19.245
		c0.192-0.199,0.509-0.205,0.707-0.013c0.199,0.192,0.204,0.509,0.013,0.706c-0.004,0.005-0.008,0.01-0.013,0.014L16.667,32.487
		C16.575,32.581,16.448,32.633,16.315,32.633z"/>
</g>
</svg>
