<?xml version="1.0" encoding="utf-8"?>
<!-- Generator: Adobe Illustrator 16.0.0, SVG Export Plug-In . SVG Version: 6.00 Build 0)  -->
<!DOCTYPE svg PUBLIC "-//W3C//DTD SVG 1.1//EN" "http://www.w3.org/Graphics/SVG/1.1/DTD/svg11.dtd">
<svg version="1.1" id="Layer_1" xmlns="http://www.w3.org/2000/svg" xmlns:xlink="http://www.w3.org/1999/xlink" x="0px" y="0px"
	 width="32px" height="32px" viewBox="0 0 32 32" enable-background="new 0 0 32 32" xml:space="preserve">
<defs>
	<filter id="Adobe_OpacityMaskFilter" filterUnits="userSpaceOnUse" x="0.583" y="0.595" width="30.812" height="30.811">
		
			<feColorMatrix  type="matrix" values="-1 0 0 0 1  0 -1 0 0 1  0 0 -1 0 1  0 0 0 1 0" color-interpolation-filters="sRGB" result="source"/>
		<feFlood  style="flood-color:white;flood-opacity:1" result="back"/>
		<feBlend  in="source" in2="back" mode="normal"/>
	</filter>
</defs>
<mask maskUnits="userSpaceOnUse" x="0.583" y="0.595" width="30.812" height="30.811" id="SVGID_1_">
	<g filter="url(#Adobe_OpacityMaskFilter)">
		<path fill="#FFFFFF" d="M5.71,16.259c-0.516-0.287-0.979-0.901-1.051-1.649c-0.046-0.443-0.181-1.173-0.166-1.651
			c0.079-1.828,0.18-2.352,1.487-3.293c2.297-1.682,5.17-2.361,7.823-2.625c1.067-0.106,2.188-0.164,3.268,0.038
			c1.366,0.257,3.052,0.956,3.797,2.813c0.257,0.646-0.325,1.739-0.563,2.379l-4.048,10.364l0.051,0.051
			c0.203-0.13,0.486-0.073,0.528,0.339c0.054,0.553-0.486,1.614-0.703,2.053c-0.319,0.676-1.015,2.397-1.676,2.468
			c-0.535,0.051-2.902-0.107-2.98-0.883c-0.274-2.74,3.023-9.589,4.184-12.027l1.788-3.761c-3.671,0.45-7.249,1.449-10.615,3.211
			l0.003,0.057c0.308,0.053,1.741,0.105,1.796,0.661c0.058,0.583-0.675,1.905-1.53,2.017L5.71,16.259z"/>
		<path fill="#FFFFFF" d="M14.646,6.971c0,0,14.712-1.16,16.28-1.064c0.597,0.036,1.511,3.015,0.456,3.485
			c-1.374,0.612-3.378,1.067-6.623,0.734c-1.011-0.102-3.26-0.107-10.153,1.214L14.646,6.971z"/>
	</g>
</mask>
<radialGradient id="SVGID_2_" cx="15.9883" cy="16" r="15.4058" gradientUnits="userSpaceOnUse">
	<stop  offset="0" style="stop-color:#565759"/>
	<stop  offset="1" style="stop-color:#434345"/>
</radialGradient>
<circle mask="url(#SVGID_1_)" fill="url(#SVGID_2_)" cx="15.989" cy="16" r="15.406"/>
</svg>
