<?xml version="1.0" encoding="utf-8"?>
<!-- Generator: Adobe Illustrator 16.0.0, SVG Export Plug-In . SVG Version: 6.00 Build 0)  -->
<!DOCTYPE svg PUBLIC "-//W3C//DTD SVG 1.1//EN" "http://www.w3.org/Graphics/SVG/1.1/DTD/svg11.dtd">
<svg version="1.1" xmlns="http://www.w3.org/2000/svg" xmlns:xlink="http://www.w3.org/1999/xlink" x="0px" y="0px" width="1500px"
	 height="1500px" viewBox="0 0 1500 1500" enable-background="new 0 0 1500 1500" xml:space="preserve">
<g id="Layer_5">
	<rect x="-88.5" y="-54.5" fill="#F3D4BD" width="1677" height="1609"/>
</g>
<g id="Layer_2">
	<path d="M558,1017.077c0,0-35.434,55.498,19.832,127.494s139.262,152.991,199.258,164.991s112.494,20.999,148.492-14.999
		s68.996-94.496,76.496-164.992S1013.919,1062.42,975,1009l9.079-9.922l313.484,341.982l8.999,158.939H327.112l134.993-353.93
		l64.497-104.994L558,1017.077z"/>
	<path fill="#151338" d="M53,1500c0,0-4-5,15-19s11-42,11-42s4-43,13-52s9-24,9-24s37-43,88-87s58-30,83-78s35-55,62-53
		c0,0,0-32,50-26s31,2.502,36-0.749S447,1107,455,1089s4-19,62-56c0,0-3-21,51-42v41c0,0-53,23-49,45s-1,106,15,129s10,60,34,95
		s-4,129,0,164s9.832,35,9.832,35H53z"/>
	<path fill="#FFFFFF" d="M535,1209c0,0,4,30-17,100s-13,63-36,118s-32,73-32,73h42.652c0,0,26.348-51,32.348-80s12-40,17-57
		s9-27,16-82C558,1281,545,1277,535,1209z"/>
	<path fill="#151338" d="M1500,1354.5c0,0-20-35.5-35-52.5s-23-66-59-93s-42-18-64-43s-30-39-52-44c0,0-2-25-36-33s-70,11-111-19
		s-104-68-126-70s-42-27-42-27v36c0,0,129,119,128,200s-13,66-11,81s-15,40-4,92s-10,79-10,103s-1,15-1,15h423V1354.5z"/>
	<path fill="#FFFFFF" d="M1102,1209c0,0,5,30-8,69c0,0,11,48,29,72s30,61,44,84s12,34,21,50s5,16,5,16h43c0,0-44-65-71-133
		s-33-68-42-98S1102,1209,1102,1209z"/>
	<path d="M-121.366,1260.065"/>
</g>
<g id="Layer_3">
	<path fill="#2B161C" d="M504,619.598c0,0-31.602,68.813,0,130.402s51.1,129.086,61.6,139.585s12,43.497,41.998,68.996
		s13.5,23.997,41.998,40.497s25.499,32.999,56.997,37.499s-7.681,34.498,43.407,38.998s87.086,10.5,94.586-14.999
		s20.999-9,19.499-41.998s16.499,1.839,38.998-45.578s35.998-50.417,40.498-68.416s22.34-13.499,31.419-35.998
		s30.078-20.999,28.578-44.998s10.499-60.18,10.499-73.588c0-13.408,23.998-85.404,16.499-92.904s-17.999-15-17.999-15
		s-13.499,40.498-10.499,52.498s0,70.497-19.499,86.996s-64.497,44.997-64.497,56.997s-34.497,44.998-46.497,46.498
		s-19.501-25.979-37.499-35.488s-67.678-6.51-84.086,14.489c-16.409,20.999-35.907,29.999-49.407,22.499
		s-32.999-33.479-52.498-36.988s-46.498,8.489-58.497-12.51s-35.999-34.498-41.998-55.497s-4.5-7.5-20.999-46.498
		C510.103,696.094,504,706.593,504,663.096S504,619.598,504,619.598z"/>
	<path fill="#2B161C" d="M688.594,785.5c0,0,12.185,9.001,31.499,8.09c23.689-1.117,32.998,0,62.997,0s55.498-9.001,71.997-16.5
		s-6,3.668-10.5,19.833s0,35.665-17.999,34.165s-28.535,7.662-51.766,0.081s-3.731,21.165-32.23,3.042
		c-28.499-18.123-3-12.779-28.499-26.7S688.594,785.5,688.594,785.5z"/>
	<path fill="#2B161C" d="M667,774.705c0,0-70-5.705-31-57.705c0,0,18-18,60-26s54-39,54-39s42.674,49,66.837,0
		c0,0,52.163,38,100.163,40c0,0,38,13,0,66c0,0-5-43-44-38s-55-2.295-66-6.647s-16.357-7.647-32.179,0S698,738,680,740
		S652,764.41,667,774.705z"/>
	<path fill="#2B161C" d="M563,432c0,0,22-24,50-21s64.188-7.52,75.594-0.26S726,432,714,437s-22-6-49-5S577,419,563,432z"/>
	<path fill="#2B161C" d="M816.837,438.31c0,0,7.163-22.31,32.163-24.31s71-13,71-13l22,22.221
		C942,423.221,829.674,429.619,816.837,438.31z"/>
</g>
<g id="Layer_4">
	<path fill="#2E2E2D" d="M489.955,702c0,0-60.955-134-36.955-272s51-209,145-255s205-73,329,8s144,305,114,397s-25,56-25,56
		s-7-129-32-184s-77-155-194-166s-173,1-201,31s-74,95-83,209s6.045,136-5,156S489.955,702,489.955,702z"/>
	<path fill="#232322" d="M493,686c0,0-5,12-19-52s-21-207,25-300s87-127,155-155s256-8,318,91s69,203,68,298s-33,18-33,18
		s-20-148-51-193s-57-74-121-95s-180-44-250,26s-75,230-80,282S493,686,493,686z"/>
</g>
</svg>
